<svg xmlns="http://www.w3.org/2000/svg" width="1440" height="900"><path d="M831,300L776,235L653,382Z" fill="#d7e7c0" stroke="#d7e7c0" stroke-width="1.51"/><path d="M776,235L573,184L653,382Z" fill="#dae3cd" stroke="#dae3cd" stroke-width="1.51"/><path d="M653,382L726,599L831,300Z" fill="#d7eba5" stroke="#d7eba5" stroke-width="1.51"/><path d="M479,639L726,599L653,382Z" fill="#d0edb5" stroke="#d0edb5" stroke-width="1.51"/><path d="M573,184L445,320L653,382Z" fill="#dae1d6" stroke="#dae1d6" stroke-width="1.51"/><path d="M776,235L795,28L573,184Z" fill="#dae9cf" stroke="#dae9cf" stroke-width="1.51"/><path d="M872,1L795,28L983,58Z" fill="#d0f7d6" stroke="#d0f7d6" stroke-width="1.51"/><path d="M726,599L980,540L831,300Z" fill="#cef0a9" stroke="#cef0a9" stroke-width="1.51"/><path d="M983,58L795,28L776,235Z" fill="#d2f0d5" stroke="#d2f0d5" stroke-width="1.51"/><path d="M983,58L776,235L831,300Z" fill="#d2e9d7" stroke="#d2e9d7" stroke-width="1.51"/><path d="M1209,173L983,58L831,300Z" fill="#c8efde" stroke="#c8efde" stroke-width="1.51"/><path d="M726,599L930,842L980,540Z" fill="#b9f9b9" stroke="#b9f9b9" stroke-width="1.51"/><path d="M543,697L685,708L726,599Z" fill="#c4f3bb" stroke="#c4f3bb" stroke-width="1.51"/><path d="M573,184L344,169L445,320Z" fill="#d9dcf3" stroke="#d9dcf3" stroke-width="1.51"/><path d="M795,28L509,-2L573,184Z" fill="#dbedda" stroke="#dbedda" stroke-width="1.51"/><path d="M647,-323L509,-2L795,28Z" fill="#dbf3d6" stroke="#dbf3d6" stroke-width="1.51"/><path d="M445,320L479,639L653,382Z" fill="#d9e7ba" stroke="#d9e7ba" stroke-width="1.51"/><path d="M479,639L543,697L726,599Z" fill="#c6f1c3" stroke="#c6f1c3" stroke-width="1.51"/><path d="M445,320L321,422L479,639Z" fill="#d9e5c9" stroke="#d9e5c9" stroke-width="1.51"/><path d="M509,-2L344,169L573,184Z" fill="#dae5ef" stroke="#dae5ef" stroke-width="1.51"/><path d="M344,169L321,422L445,320Z" fill="#d9dded" stroke="#d9dded" stroke-width="1.51"/><path d="M980,540L1167,428L831,300Z" fill="#c8f2b4" stroke="#c8f2b4" stroke-width="1.51"/><path d="M479,639L408,858L543,697Z" fill="#cfe9d3" stroke="#cfe9d3" stroke-width="1.51"/><path d="M321,422L354,641L479,639Z" fill="#cfe9d6" stroke="#cfe9d6" stroke-width="1.51"/><path d="M1233,300L1209,173L831,300Z" fill="#c5eddc" stroke="#c5eddc" stroke-width="1.51"/><path d="M983,58L1014,-238L872,1Z" fill="#ccfcd9" stroke="#ccfcd9" stroke-width="1.51"/><path d="M1167,428L1233,300L831,300Z" fill="#c3f1ca" stroke="#c3f1ca" stroke-width="1.51"/><path d="M980,540L1210,610L1167,428Z" fill="#c0f6b9" stroke="#c0f6b9" stroke-width="1.51"/><path d="M1167,428L1376,481L1233,300Z" fill="#dae5bd" stroke="#dae5bd" stroke-width="1.51"/><path d="M930,842L1168,660L980,540Z" fill="#aefdc3" stroke="#aefdc3" stroke-width="1.51"/><path d="M321,422L231,655L354,641Z" fill="#ceebd9" stroke="#ceebd9" stroke-width="1.51"/><path d="M344,169L190,411L321,422Z" fill="#dae2e7" stroke="#dae2e7" stroke-width="1.51"/><path d="M502,1026L685,708L543,697Z" fill="#dee0c5" stroke="#dee0c5" stroke-width="1.51"/><path d="M946,985L930,842L767,1026Z" fill="#e5dcba" stroke="#e5dcba" stroke-width="1.51"/><path d="M685,708L930,842L726,599Z" fill="#c7f1b6" stroke="#c7f1b6" stroke-width="1.51"/><path d="M1168,660L1210,610L980,540Z" fill="#b7f9c0" stroke="#b7f9c0" stroke-width="1.51"/><path d="M481,-296L259,-76L509,-2Z" fill="#daeef5" stroke="#daeef5" stroke-width="1.51"/><path d="M1209,173L1184,-1L983,58Z" fill="#c9f5e1" stroke="#c9f5e1" stroke-width="1.51"/><path d="M1273,99L1184,-1L1209,173Z" fill="#d6ece0" stroke="#d6ece0" stroke-width="1.51"/><path d="M1233,300L1273,99L1209,173Z" fill="#d8e3e2" stroke="#d8e3e2" stroke-width="1.51"/><path d="M1345,34L1273,99L1449,154Z" fill="#e6e0e0" stroke="#e6e0e0" stroke-width="1.51"/><path d="M190,411L231,655L321,422Z" fill="#d6ebd3" stroke="#d6ebd3" stroke-width="1.51"/><path d="M354,641L408,858L479,639Z" fill="#cbeadc" stroke="#cbeadc" stroke-width="1.51"/><path d="M509,-2L259,-76L344,169Z" fill="#daebfc" stroke="#daebfc" stroke-width="1.51"/><path d="M344,169L88,185L190,411Z" fill="#dae3f7" stroke="#dae3f7" stroke-width="1.51"/><path d="M647,-323L795,28L872,1Z" fill="#d7f6cf" stroke="#d7f6cf" stroke-width="1.51"/><path d="M231,655L408,858L354,641Z" fill="#cce9e2" stroke="#cce9e2" stroke-width="1.51"/><path d="M1184,-1L1014,-238L983,58Z" fill="#c4ffdf" stroke="#c4ffdf" stroke-width="1.51"/><path d="M1146,-299L1014,-238L1184,-1Z" fill="#c8fde0" stroke="#c8fde0" stroke-width="1.51"/><path d="M1014,-238L647,-323L872,1Z" fill="#d3f8d3" stroke="#d3f8d3" stroke-width="1.51"/><path d="M1210,610L1376,481L1167,428Z" fill="#d3eab7" stroke="#d3eab7" stroke-width="1.51"/><path d="M1456,592L1376,481L1210,610Z" fill="#d9e5bb" stroke="#d9e5bb" stroke-width="1.51"/><path d="M259,-76L88,185L344,169Z" fill="#daecfd" stroke="#daecfd" stroke-width="1.51"/><path d="M190,411L91,515L231,655Z" fill="#d3f0d4" stroke="#d3f0d4" stroke-width="1.51"/><path d="M365,1177L502,1026L408,858Z" fill="#eed0d8" stroke="#eed0d8" stroke-width="1.51"/><path d="M6,404L91,515L190,411Z" fill="#dbefcf" stroke="#dbefcf" stroke-width="1.51"/><path d="M647,-323L481,-296L509,-2Z" fill="#dbf1e4" stroke="#dbf1e4" stroke-width="1.51"/><path d="M1273,99L1345,34L1184,-1Z" fill="#dcece0" stroke="#dcece0" stroke-width="1.51"/><path d="M1449,154L1273,99L1233,300Z" fill="#e1dce1" stroke="#e1dce1" stroke-width="1.51"/><path d="M1168,660L1315,773L1210,610Z" fill="#c0f3c6" stroke="#c0f3c6" stroke-width="1.51"/><path d="M1074,1032L1315,773L1168,660Z" fill="#d7e4c5" stroke="#d7e4c5" stroke-width="1.51"/><path d="M767,1026L930,842L685,708Z" fill="#e2dfb6" stroke="#e2dfb6" stroke-width="1.51"/><path d="M502,1026L767,1026L685,708Z" fill="#edd6bb" stroke="#edd6bb" stroke-width="1.51"/><path d="M408,-331L186,-139L259,-76Z" fill="#daf1fc" stroke="#daf1fc" stroke-width="1.51"/><path d="M259,-76L186,-139L88,185Z" fill="#dbf6fc" stroke="#dbf6fc" stroke-width="1.51"/><path d="M1074,1032L1168,660L930,842Z" fill="#d1e9c4" stroke="#d1e9c4" stroke-width="1.51"/><path d="M-77,224L6,404L88,185Z" fill="#dbedf3" stroke="#dbedf3" stroke-width="1.51"/><path d="M88,185L6,404L190,411Z" fill="#dbebe6" stroke="#dbebe6" stroke-width="1.51"/><path d="M647,-323L408,-331L481,-296Z" fill="#dbf0e8" stroke="#dbf0e8" stroke-width="1.51"/><path d="M481,-296L408,-331L259,-76Z" fill="#daedfa" stroke="#daedfa" stroke-width="1.51"/><path d="M1618,411L1449,154L1376,481Z" fill="#eed3c7" stroke="#eed3c7" stroke-width="1.51"/><path d="M1376,481L1449,154L1233,300Z" fill="#e5dacf" stroke="#e5dacf" stroke-width="1.51"/><path d="M408,858L502,1026L543,697Z" fill="#e7d7d1" stroke="#e7d7d1" stroke-width="1.51"/><path d="M101,717L408,858L231,655Z" fill="#d1eae2" stroke="#d1eae2" stroke-width="1.51"/><path d="M91,515L101,717L231,655Z" fill="#c8f6dd" stroke="#c8f6dd" stroke-width="1.51"/><path d="M-53,625L101,717L91,515Z" fill="#c9fadc" stroke="#c9fadc" stroke-width="1.51"/><path d="M1014,-238L1146,-299L647,-323Z" fill="#cdfbd8" stroke="#cdfbd8" stroke-width="1.51"/><path d="M1254,-274L1146,-299L1184,-1Z" fill="#d3f6df" stroke="#d3f6df" stroke-width="1.51"/><path d="M1254,-274L1184,-1L1345,34Z" fill="#dbf0df" stroke="#dbf0df" stroke-width="1.51"/><path d="M1315,773L1456,592L1210,610Z" fill="#ceebc4" stroke="#ceebc4" stroke-width="1.51"/><path d="M853,1235L946,985L767,1026Z" fill="#e6dcb9" stroke="#e6dcb9" stroke-width="1.51"/><path d="M853,1235L1074,1032L946,985Z" fill="#e0debe" stroke="#e0debe" stroke-width="1.51"/><path d="M946,985L1074,1032L930,842Z" fill="#dfdfc0" stroke="#dfdfc0" stroke-width="1.51"/><path d="M1433,-258L1254,-274L1345,34Z" fill="#e5eadf" stroke="#e5eadf" stroke-width="1.51"/><path d="M-104,-128L-77,224L88,185Z" fill="#dbf8fb" stroke="#dbf8fb" stroke-width="1.51"/><path d="M6,404L-53,625L91,515Z" fill="#d4f7d2" stroke="#d4f7d2" stroke-width="1.51"/><path d="M1449,154L1510,5L1345,34Z" fill="#efdcdf" stroke="#efdcdf" stroke-width="1.51"/><path d="M1634,10L1510,5L1449,154Z" fill="#f0dcdf" stroke="#f0dcdf" stroke-width="1.51"/><path d="M-278,377L-53,625L6,404Z" fill="#d9f6ce" stroke="#d9f6ce" stroke-width="1.51"/><path d="M162,1132L365,1177L408,858Z" fill="#eed1e0" stroke="#eed1e0" stroke-width="1.51"/><path d="M186,-139L-104,-128L88,185Z" fill="#dbfcfb" stroke="#dbfcfb" stroke-width="1.51"/><path d="M408,-331L122,-274L186,-139Z" fill="#daf3fc" stroke="#daf3fc" stroke-width="1.51"/><path d="M-53,625L-31,766L101,717Z" fill="#c9fbe0" stroke="#c9fbe0" stroke-width="1.51"/><path d="M1456,592L1618,411L1376,481Z" fill="#e9d9b5" stroke="#e9d9b5" stroke-width="1.51"/><path d="M1740,543L1618,411L1456,592Z" fill="#e7dbb7" stroke="#e7dbb7" stroke-width="1.51"/><path d="M1254,-274L1812,-346L1146,-299Z" fill="#ece4de" stroke="#ece4de" stroke-width="1.51"/><path d="M1510,5L1433,-258L1345,34Z" fill="#efe2de" stroke="#efe2de" stroke-width="1.51"/><path d="M1315,773L1618,753L1456,592Z" fill="#e0dec5" stroke="#e0dec5" stroke-width="1.51"/><path d="M1074,1032L1317,1027L1315,773Z" fill="#ebd5c4" stroke="#ebd5c4" stroke-width="1.51"/><path d="M502,1026L669,1236L767,1026Z" fill="#edd6bb" stroke="#edd6bb" stroke-width="1.51"/><path d="M1074,1032L1124,1176L1317,1027Z" fill="#e4dbc4" stroke="#e4dbc4" stroke-width="1.51"/><path d="M444,1218L669,1236L502,1026Z" fill="#eed2c9" stroke="#eed2c9" stroke-width="1.51"/><path d="M669,1236L853,1235L767,1026Z" fill="#ead8b4" stroke="#ead8b4" stroke-width="1.51"/><path d="M65,978L408,858L101,717Z" fill="#e7dee0" stroke="#e7dee0" stroke-width="1.51"/><path d="M-31,766L65,978L101,717Z" fill="#e2e9df" stroke="#e2e9df" stroke-width="1.51"/><path d="M853,1235L1124,1176L1074,1032Z" fill="#dde1c1" stroke="#dde1c1" stroke-width="1.51"/><path d="M365,1177L444,1218L502,1026Z" fill="#eed0d7" stroke="#eed0d7" stroke-width="1.51"/><path d="M1510,5L1634,10L1433,-258Z" fill="#f0e1de" stroke="#f0e1de" stroke-width="1.51"/><path d="M1755,220L1634,10L1449,154Z" fill="#efd6e0" stroke="#efd6e0" stroke-width="1.51"/><path d="M-77,224L-278,377L6,404Z" fill="#dbf0e5" stroke="#dbf0e5" stroke-width="1.51"/><path d="M122,-274L-104,-128L186,-139Z" fill="#dbfcfb" stroke="#dbfcfb" stroke-width="1.51"/><path d="M1618,411L1755,220L1449,154Z" fill="#eed0d9" stroke="#eed0d9" stroke-width="1.51"/><path d="M1508,937L1618,753L1315,773Z" fill="#f3cec4" stroke="#f3cec4" stroke-width="1.51"/><path d="M1317,1027L1508,937L1315,773Z" fill="#fac8c4" stroke="#fac8c4" stroke-width="1.51"/><path d="M1449,1222L1508,937L1317,1027Z" fill="#fec4c3" stroke="#fec4c3" stroke-width="1.51"/><path d="M365,1177L-98,1202L444,1218Z" fill="#efd5e0" stroke="#efd5e0" stroke-width="1.51"/><path d="M65,978L162,1132L408,858Z" fill="#efd6e0" stroke="#efd6e0" stroke-width="1.51"/><path d="M-31,766L-135,997L65,978Z" fill="#f0e1de" stroke="#f0e1de" stroke-width="1.51"/><path d="M-53,625L-226,733L-31,766Z" fill="#cafbe0" stroke="#cafbe0" stroke-width="1.51"/><path d="M-338,92L-278,377L-77,224Z" fill="#daedfb" stroke="#daedfb" stroke-width="1.51"/><path d="M1766,307L1755,220L1618,411Z" fill="#eed2ce" stroke="#eed2ce" stroke-width="1.51"/><path d="M1618,753L1740,543L1456,592Z" fill="#dee0c1" stroke="#dee0c1" stroke-width="1.51"/><path d="M1740,543L1766,307L1618,411Z" fill="#edd6b8" stroke="#edd6b8" stroke-width="1.51"/><path d="M-275,639L-226,733L-53,625Z" fill="#c3ffdf" stroke="#c3ffdf" stroke-width="1.51"/><path d="M65,978L-98,1202L162,1132Z" fill="#f0dfdf" stroke="#f0dfdf" stroke-width="1.51"/><path d="M122,-274L-111,-306L-104,-128Z" fill="#dbfffa" stroke="#dbfffa" stroke-width="1.51"/><path d="M-104,-128L-248,-60L-77,224Z" fill="#dbfefa" stroke="#dbfefa" stroke-width="1.51"/><path d="M408,-331L-111,-306L122,-274Z" fill="#dbf8fb" stroke="#dbf8fb" stroke-width="1.51"/><path d="M-340,-252L-248,-60L-104,-128Z" fill="#dbfffa" stroke="#dbfffa" stroke-width="1.51"/><path d="M-278,377L-275,639L-53,625Z" fill="#d1fad5" stroke="#d1fad5" stroke-width="1.51"/><path d="M1508,937L1685,802L1618,753Z" fill="#f4ccc4" stroke="#f4ccc4" stroke-width="1.51"/><path d="M1618,753L1838,721L1740,543Z" fill="#dae2c5" stroke="#dae2c5" stroke-width="1.51"/><path d="M1508,937L1745,861L1685,802Z" fill="#fac7c3" stroke="#fac7c3" stroke-width="1.51"/><path d="M1124,1176L1336,1241L1317,1027Z" fill="#eed3c4" stroke="#eed3c4" stroke-width="1.51"/><path d="M853,1235L1336,1241L1124,1176Z" fill="#dde0c5" stroke="#dde0c5" stroke-width="1.51"/><path d="M669,1236L1336,1241L853,1235Z" fill="#e1debe" stroke="#e1debe" stroke-width="1.51"/><path d="M-248,-60L-338,92L-77,224Z" fill="#dbf8fb" stroke="#dbf8fb" stroke-width="1.51"/><path d="M-278,377L-349,897L-275,639Z" fill="#c7fedd" stroke="#c7fedd" stroke-width="1.51"/><path d="M-340,-252L-338,92L-248,-60Z" fill="#dbfffa" stroke="#dbfffa" stroke-width="1.51"/><path d="M-349,897L-135,997L-226,733Z" fill="#ece4de" stroke="#ece4de" stroke-width="1.51"/><path d="M-226,733L-135,997L-31,766Z" fill="#e4eadf" stroke="#e4eadf" stroke-width="1.51"/><path d="M1685,802L1838,721L1618,753Z" fill="#e9d7c4" stroke="#e9d7c4" stroke-width="1.51"/><path d="M2008,432L1914,164L1766,307Z" fill="#eed1d1" stroke="#eed1d1" stroke-width="1.51"/><path d="M1854,927L1745,861L1821,1172Z" fill="#ffc2c3" stroke="#ffc2c3" stroke-width="1.51"/><path d="M1336,1241L1449,1222L1317,1027Z" fill="#f8c9c4" stroke="#f8c9c4" stroke-width="1.51"/><path d="M1745,861L1838,721L1685,802Z" fill="#efd1c4" stroke="#efd1c4" stroke-width="1.51"/><path d="M1766,307L1914,164L1755,220Z" fill="#eecee0" stroke="#eecee0" stroke-width="1.51"/><path d="M1946,495L1766,307L1740,543Z" fill="#edd7b2" stroke="#edd7b2" stroke-width="1.51"/><path d="M1755,220L1914,164L1634,10Z" fill="#efd6e0" stroke="#efd6e0" stroke-width="1.51"/><path d="M1634,10L1812,-346L1433,-258Z" fill="#f0e1de" stroke="#f0e1de" stroke-width="1.51"/><path d="M-135,997L-98,1202L65,978Z" fill="#f0e1de" stroke="#f0e1de" stroke-width="1.51"/><path d="M162,1132L-98,1202L365,1177Z" fill="#efd9df" stroke="#efd9df" stroke-width="1.51"/><path d="M444,1218L-316,1234L669,1236Z" fill="#efd3e0" stroke="#efd3e0" stroke-width="1.51"/><path d="M-316,1234L-98,1202L-135,997Z" fill="#f0e1de" stroke="#f0e1de" stroke-width="1.51"/><path d="M-111,-306L-340,-252L-104,-128Z" fill="#dbfffa" stroke="#dbfffa" stroke-width="1.51"/><path d="M1838,721L1946,495L1740,543Z" fill="#e2debd" stroke="#e2debd" stroke-width="1.51"/><path d="M-275,639L-349,897L-226,733Z" fill="#d5f4df" stroke="#d5f4df" stroke-width="1.51"/><path d="M-338,92L-349,897L-278,377Z" fill="#daf5cd" stroke="#daf5cd" stroke-width="1.51"/><path d="M-340,-252L-349,897L-338,92Z" fill="#daeef8" stroke="#daeef8" stroke-width="1.51"/><path d="M1930,-147L1812,-346L1634,10Z" fill="#f0e1de" stroke="#f0e1de" stroke-width="1.51"/><path d="M1433,-258L1812,-346L1254,-274Z" fill="#f0e1de" stroke="#f0e1de" stroke-width="1.51"/><path d="M1146,-299L1812,-346L647,-323Z" fill="#d4f5df" stroke="#d4f5df" stroke-width="1.51"/><path d="M647,-323L1812,-346L408,-331Z" fill="#ccfcd9" stroke="#ccfcd9" stroke-width="1.51"/><path d="M1838,721L1854,927L1946,495Z" fill="#e1ddc5" stroke="#e1ddc5" stroke-width="1.51"/><path d="M1745,861L1854,927L1838,721Z" fill="#f5ccc4" stroke="#f5ccc4" stroke-width="1.51"/><path d="M1821,1172L1745,861L1508,937Z" fill="#ffc2c3" stroke="#ffc2c3" stroke-width="1.51"/><path d="M1854,927L2008,432L1946,495Z" fill="#dfdfc0" stroke="#dfdfc0" stroke-width="1.51"/><path d="M1946,495L2008,432L1766,307Z" fill="#edd6ba" stroke="#edd6ba" stroke-width="1.51"/><path d="M1914,164L1930,-147L1634,10Z" fill="#f0e0de" stroke="#f0e0de" stroke-width="1.51"/><path d="M2008,432L1930,-147L1914,164Z" fill="#efd4e0" stroke="#efd4e0" stroke-width="1.51"/><path d="M1930,-147L1939,-281L1812,-346Z" fill="#f0e1de" stroke="#f0e1de" stroke-width="1.51"/><path d="M2008,432L1939,-281L1930,-147Z" fill="#f0e1de" stroke="#f0e1de" stroke-width="1.51"/><path d="M1449,1222L1821,1172L1508,937Z" fill="#ffc2c3" stroke="#ffc2c3" stroke-width="1.51"/><path d="M1854,927L1872,1221L2008,432Z" fill="#f9c8c4" stroke="#f9c8c4" stroke-width="1.51"/><path d="M1872,1221L1821,1172L1449,1222Z" fill="#ffc2c3" stroke="#ffc2c3" stroke-width="1.51"/><path d="M-98,1202L-316,1234L444,1218Z" fill="#f0e0de" stroke="#f0e0de" stroke-width="1.51"/><path d="M669,1236L-316,1234L1336,1241Z" fill="#eed4c6" stroke="#eed4c6" stroke-width="1.51"/><path d="M-349,897L-316,1234L-135,997Z" fill="#f0e1de" stroke="#f0e1de" stroke-width="1.51"/><path d="M1336,1241L1872,1221L1449,1222Z" fill="#ffc2c3" stroke="#ffc2c3" stroke-width="1.51"/><path d="M1821,1172L1872,1221L1854,927Z" fill="#ffc2c3" stroke="#ffc2c3" stroke-width="1.51"/></svg>